<svg width="24" height="39" viewBox="0 0 24 39" fill="none" xmlns="http://www.w3.org/2000/svg">
<path d="M12 17.5C15.3483 14.7713 15.4076 20.2978 19.5 15.8333M4.55513 15.2626C4.56288 14.9484 4.56676 14.7914 4.60473 14.6438C4.6384 14.513 4.69172 14.3882 4.76287 14.2735C4.84309 14.1442 4.9537 14.033 5.17492 13.8108L16.0522 2.88581C16.4885 2.44757 17.17 2.37413 17.6889 2.70942C18.3042 3.10692 18.8298 3.62925 19.2321 4.24288L19.2603 4.28589C19.2807 4.31697 19.2908 4.33252 19.2995 4.34652C19.6189 4.86106 19.5513 5.52745 19.1352 5.96671C19.1238 5.97866 19.1108 5.99182 19.0845 6.01814L8.27343 16.8767C8.04395 17.1072 7.92921 17.2224 7.79529 17.3048C7.67657 17.3778 7.54712 17.4315 7.41172 17.464C7.25899 17.5007 7.09673 17.5004 6.77221 17.4999L4.5 17.4962L4.55513 15.2626Z" stroke="#2C334F" stroke-width="2" stroke-linecap="round" stroke-linejoin="round"/>
<path d="M2.37169 36.912H7.45969V38H1.05969V28.992H7.29969V30.144H2.37169V32.88H6.21169V33.984H2.37169V36.912ZM11.5114 38.16C10.5514 38.16 9.84744 37.8507 9.39944 37.232C8.95144 36.6027 8.72744 35.8027 8.72744 34.832C8.72744 33.8293 8.95144 33.0187 9.39944 32.4C9.8581 31.7707 10.5621 31.456 11.5114 31.456C11.9381 31.456 12.2954 31.5253 12.5834 31.664C12.8714 31.8027 13.1008 31.968 13.2714 32.16C13.4528 32.352 13.5808 32.528 13.6554 32.688C13.7408 32.848 13.7888 32.9493 13.7994 32.992H13.8314L13.8474 28.992H15.2074V38H14.0554L13.8474 36.688H13.8154C13.7941 36.7307 13.7354 36.832 13.6394 36.992C13.5541 37.1413 13.4208 37.3067 13.2394 37.488C13.0688 37.6693 12.8394 37.8293 12.5514 37.968C12.2634 38.096 11.9168 38.16 11.5114 38.16ZM11.8954 37.008C12.5141 37.008 12.9888 36.8107 13.3194 36.416C13.6501 36.0107 13.8154 35.4773 13.8154 34.816C13.8154 34.176 13.6554 33.6587 13.3354 33.264C13.0261 32.8587 12.5674 32.656 11.9594 32.656C11.4901 32.656 11.1114 32.7627 10.8234 32.976C10.5461 33.1787 10.3434 33.4453 10.2154 33.776C10.0981 34.1067 10.0394 34.4533 10.0394 34.816C10.0394 35.1893 10.0928 35.5467 10.1994 35.888C10.3168 36.2187 10.5088 36.4907 10.7754 36.704C11.0528 36.9067 11.4261 37.008 11.8954 37.008ZM17.5129 30.736C17.2249 30.7467 17.0329 30.6773 16.9369 30.528C16.8409 30.3787 16.7929 30.192 16.7929 29.968C16.7929 29.776 16.8409 29.6053 16.9369 29.456C17.0329 29.3067 17.2249 29.232 17.5129 29.232C17.7903 29.232 17.9769 29.3067 18.0729 29.456C18.1796 29.6053 18.2329 29.776 18.2329 29.968C18.2329 30.192 18.1796 30.3787 18.0729 30.528C17.9769 30.6667 17.7903 30.736 17.5129 30.736ZM16.8409 38V31.456H18.1689V38H16.8409ZM21.6601 38C21.2014 38 20.8654 37.8827 20.6521 37.648C20.4494 37.4133 20.3481 37.056 20.3481 36.576V32.416H19.3401V31.456C19.6707 31.456 19.9161 31.4293 20.0761 31.376C20.2467 31.312 20.3587 31.1627 20.4121 30.928C20.4761 30.6827 20.5081 30.2987 20.5081 29.776H21.6121V31.456H23.1161V32.416H21.6121V36.944H23.1321V38H21.6601Z" fill="#2C334F"/>
</svg>
